<svg viewBox="0 0 100 100" version="1.1" xmlns="http://www.w3.org/2000/svg" xmlns:xlink="http://www.w3.org/1999/xlink" xml:space="preserve" style="fill-rule:evenodd;clip-rule:evenodd;stroke-linejoin:round;stroke-miterlimit:1.41421;" id="el_aIu64UOQI"><style>@-webkit-keyframes kf_el_FI_hw90cVmf_an_UIEKAoPwV{48.89%{opacity: 1;}50%{opacity: 0;}98.89%{opacity: 0;}100%{opacity: 1;}0%{opacity: 1;}}@keyframes kf_el_FI_hw90cVmf_an_UIEKAoPwV{48.89%{opacity: 1;}50%{opacity: 0;}98.89%{opacity: 0;}100%{opacity: 1;}0%{opacity: 1;}}@-webkit-keyframes kf_el_KYo66o81zXP_an_qc1CCoZZO{41.11%{opacity: 1;}42.22%{opacity: 0;}91.11%{opacity: 0;}92.22%{opacity: 1;}0%{opacity: 1;}100%{opacity: 1;}}@keyframes kf_el_KYo66o81zXP_an_qc1CCoZZO{41.11%{opacity: 1;}42.22%{opacity: 0;}91.11%{opacity: 0;}92.22%{opacity: 1;}0%{opacity: 1;}100%{opacity: 1;}}@-webkit-keyframes kf_el_3Vjw6A78GWZ_an_z3UPJ-lMb{32.22%{opacity: 1;}33.33%{opacity: 0;}82.22%{opacity: 0;}83.33%{opacity: 1;}0%{opacity: 1;}100%{opacity: 1;}}@keyframes kf_el_3Vjw6A78GWZ_an_z3UPJ-lMb{32.22%{opacity: 1;}33.33%{opacity: 0;}82.22%{opacity: 0;}83.33%{opacity: 1;}0%{opacity: 1;}100%{opacity: 1;}}@-webkit-keyframes kf_el_-WLJTNeO5GR_an_gWmMwJdkU{24.44%{opacity: 1;}25.56%{opacity: 0;}74.44%{opacity: 0;}75.56%{opacity: 1;}0%{opacity: 1;}100%{opacity: 1;}}@keyframes kf_el_-WLJTNeO5GR_an_gWmMwJdkU{24.44%{opacity: 1;}25.56%{opacity: 0;}74.44%{opacity: 0;}75.56%{opacity: 1;}0%{opacity: 1;}100%{opacity: 1;}}@-webkit-keyframes kf_el_9NHvXE2v4t_an_4gURc19nT{15.56%{opacity: 1;}16.67%{opacity: 0;}65.56%{opacity: 0;}66.67%{opacity: 1;}0%{opacity: 1;}100%{opacity: 1;}}@keyframes kf_el_9NHvXE2v4t_an_4gURc19nT{15.56%{opacity: 1;}16.67%{opacity: 0;}65.56%{opacity: 0;}66.67%{opacity: 1;}0%{opacity: 1;}100%{opacity: 1;}}@-webkit-keyframes kf_el_JDchsDGZHj_an_tFhBAqsuP{7.78%{opacity: 1;}8.89%{opacity: 0;}57.78%{opacity: 0;}58.89%{opacity: 1;}0%{opacity: 1;}100%{opacity: 1;}}@keyframes kf_el_JDchsDGZHj_an_tFhBAqsuP{7.78%{opacity: 1;}8.89%{opacity: 0;}57.78%{opacity: 0;}58.89%{opacity: 1;}0%{opacity: 1;}100%{opacity: 1;}}#el_aIu64UOQI *{-webkit-animation-duration: 3s;animation-duration: 3s;-webkit-animation-iteration-count: infinite;animation-iteration-count: infinite;-webkit-animation-timing-function: cubic-bezier(0, 0, 1, 1);animation-timing-function: cubic-bezier(0, 0, 1, 1);}#el_T-uxF9D-QN{fill: #050505;}#el_KAgwkVMSDG{fill: #050505;}#el_0-qrdJZgtS{fill: #050505;}#el_JDchsDGZHj{fill: #050505;-webkit-animation-fill-mode: backwards;animation-fill-mode: backwards;opacity: 1;-webkit-animation-name: kf_el_JDchsDGZHj_an_tFhBAqsuP;animation-name: kf_el_JDchsDGZHj_an_tFhBAqsuP;-webkit-animation-timing-function: cubic-bezier(0, 0, 1, 1);animation-timing-function: cubic-bezier(0, 0, 1, 1);}#el_9NHvXE2v4t{fill: #050505;-webkit-animation-fill-mode: backwards;animation-fill-mode: backwards;opacity: 1;-webkit-animation-name: kf_el_9NHvXE2v4t_an_4gURc19nT;animation-name: kf_el_9NHvXE2v4t_an_4gURc19nT;-webkit-animation-timing-function: cubic-bezier(0, 0, 1, 1);animation-timing-function: cubic-bezier(0, 0, 1, 1);}#el_mxnkpMeuel{fill: #050505;}#el_Q4PYPdb9js{fill: #050505;}#el_VO-66RDxK7{fill: #050505;}#el_MmmzWyKcQk{fill: #050505;}#el_V7Wniymf23{fill: #050505;}#el_ZhfS2Vsc2E{fill: #050505;}#el_4Na8lMmGiT{fill: #050505;}#el_Le6fT5Z6uu{fill: #050505;}#el_JKZ61gK-hS{fill: #050505;}#el_7z71d2m4_p{fill: #050505;}#el_-WLJTNeO5GR{fill: #050505;-webkit-animation-fill-mode: backwards;animation-fill-mode: backwards;opacity: 1;-webkit-animation-name: kf_el_-WLJTNeO5GR_an_gWmMwJdkU;animation-name: kf_el_-WLJTNeO5GR_an_gWmMwJdkU;-webkit-animation-timing-function: cubic-bezier(0, 0, 1, 1);animation-timing-function: cubic-bezier(0, 0, 1, 1);}#el_3Vjw6A78GWZ{fill: #050505;-webkit-animation-fill-mode: backwards;animation-fill-mode: backwards;opacity: 1;-webkit-animation-name: kf_el_3Vjw6A78GWZ_an_z3UPJ-lMb;animation-name: kf_el_3Vjw6A78GWZ_an_z3UPJ-lMb;-webkit-animation-timing-function: cubic-bezier(0, 0, 1, 1);animation-timing-function: cubic-bezier(0, 0, 1, 1);}#el_0oQ0brRomsE{fill: #050505;}#el_NdnzqXmI7Az{fill: #050505;}#el_mPHkW29lgX6{fill: #050505;}#el_5iHvAdIf7Tg{fill: #050505;}#el_ASg93G7BLYm{fill: #050505;}#el_5wuY1DXeiA7{fill: #050505;}#el_kCg9WiWA4M3{fill: #050505;}#el_rQEq0Yrcsjl{fill: #050505;}#el_aiRBMCdMWJi{fill: #050505;}#el_lUDjkwexN6C{fill: #050505;}#el_KYo66o81zXP{fill: #050505;-webkit-animation-fill-mode: backwards;animation-fill-mode: backwards;opacity: 1;-webkit-animation-name: kf_el_KYo66o81zXP_an_qc1CCoZZO;animation-name: kf_el_KYo66o81zXP_an_qc1CCoZZO;-webkit-animation-timing-function: cubic-bezier(0, 0, 1, 1);animation-timing-function: cubic-bezier(0, 0, 1, 1);}#el_FI_hw90cVmf{fill: #050505;-webkit-animation-fill-mode: backwards;animation-fill-mode: backwards;opacity: 1;-webkit-animation-name: kf_el_FI_hw90cVmf_an_UIEKAoPwV;animation-name: kf_el_FI_hw90cVmf_an_UIEKAoPwV;-webkit-animation-timing-function: cubic-bezier(0, 0, 1, 1);animation-timing-function: cubic-bezier(0, 0, 1, 1);}#el_NaUQRhDU2vC{fill: #050505;}#el_wU9vGqXijFy{fill: #050505;}#el_UaOm9Whdk18{fill: #050505;}#el_ZAVihbeCU8N{fill: #050505;}#el_Gbj1CcC0Iwv{fill: #050505;}#el_UyX11aW1CGM{fill: #050505;}#el_1BsIlNCtCcY{fill: #050505;}#el_OTmI0YS-ENr{fill: #050505;}</style><ellipse id="el_T-uxF9D-QN" cx="49.965" cy="49.985" rx="5.957" ry="5.999"/><path id="el_KAgwkVMSDG" d="M44.063,49.78l2.767,-4.785l-8.161,-4.719l-2.767,4.785l8.161,4.719Z"/><ellipse id="el_0-qrdJZgtS" cx="32.859" cy="40.144" rx="6.016" ry="5.989"/><path id="el_JDchsDGZHj" d="M35.636,25.51l-5.526,-0.008l-0.014,9.427l5.526,0.008l0.014,-9.427Z"/><ellipse id="el_9NHvXE2v4t" cx="32.866" cy="20.347" rx="6.001" ry="5.987"/><path id="el_mxnkpMeuel" d="M26.895,39.88l2.753,-4.762l-8.161,-4.719l-2.753,4.762l8.161,4.719Z"/><ellipse id="el_Q4PYPdb9js" cx="15.772" cy="30.254" rx="5.986" ry="6.001"/><path id="el_VO-66RDxK7" d="M13.008,44.819l5.529,-0.005l-0.009,-9.427l-5.528,0.005l0.008,9.427Z"/><ellipse id="el_MmmzWyKcQk" cx="15.806" cy="49.983" rx="5.991" ry="6.002"/><path id="el_V7Wniymf23" d="M30.084,54.726l5.526,0.007l0.012,-9.427l-5.527,-0.007l-0.011,9.427Z"/><ellipse id="el_ZhfS2Vsc2E" cx="32.894" cy="59.844" rx="6.023" ry="6.016"/><path id="el_4Na8lMmGiT" d="M29.765,64.833l-2.757,-4.768l-8.161,4.719l2.757,4.767l8.161,-4.718Z"/><ellipse id="el_Le6fT5Z6uu" cx="15.735" cy="69.8" rx="6.006" ry="5.999"/><path id="el_JKZ61gK-hS" d="M47.156,64.525l5.491,0.01l0.017,-9.497l-5.492,-0.009l-0.016,9.496Z"/><ellipse id="el_7z71d2m4_p" cx="49.97" cy="69.731" rx="5.999" ry="6.001"/><path id="el_-WLJTNeO5GR" d="M46.849,74.733l-2.726,-4.735l-8.261,4.756l2.727,4.735l8.26,-4.756Z"/><ellipse id="el_3Vjw6A78GWZ" cx="32.926" cy="79.623" rx="6.021" ry="6.017"/><path id="el_0oQ0brRomsE" d="M47.277,84.326l5.467,-0.018l-0.029,-9.446l-5.468,0.017l0.03,9.447Z"/><ellipse id="el_NdnzqXmI7Az" cx="49.975" cy="89.499" rx="6.004" ry="6.009"/><path id="el_mPHkW29lgX6" d="M64.047,84.637l-2.734,-4.754l-8.201,4.716l2.734,4.755l8.201,-4.717Z"/><ellipse id="el_5iHvAdIf7Tg" cx="67.141" cy="79.627" rx="5.998" ry="5.977"/><path id="el_ASg93G7BLYm" d="M64.018,64.812l-2.776,-4.801l-8.191,4.735l2.776,4.801l8.191,-4.735Z"/><ellipse id="el_5wuY1DXeiA7" cx="67.097" cy="59.926" rx="5.995" ry="6.016"/><path id="el_kCg9WiWA4M3" d="M78.371,69.6l2.76,-4.773l-8.161,-4.719l-2.76,4.773l8.161,4.719Z"/><ellipse id="el_rQEq0Yrcsjl" cx="84.213" cy="69.792" rx="5.991" ry="5.986"/><path id="el_aiRBMCdMWJi" d="M64.311,44.968l-2.777,-4.804l-8.595,4.97l2.777,4.803l8.595,-4.969Z"/><ellipse id="el_lUDjkwexN6C" cx="67.091" cy="40.14" rx="5.979" ry="6.012"/><path id="el_KYo66o81zXP" d="M78.446,49.806l2.736,-4.732l-8.161,-4.719l-2.736,4.732l8.161,4.719Z"/><ellipse id="el_FI_hw90cVmf" cx="84.22" cy="49.982" rx="5.999" ry="6.017"/><path id="el_NaUQRhDU2vC" d="M81.072,35.252l-2.749,-4.757l-8.162,4.717l2.749,4.757l8.162,-4.717Z"/><ellipse id="el_wU9vGqXijFy" cx="84.292" cy="30.198" rx="6.012" ry="5.997"/><path id="el_UaOm9Whdk18" d="M78.408,30.016l2.699,-4.668l-8.161,-4.719l-2.699,4.668l8.161,4.719Z"/><ellipse id="el_ZAVihbeCU8N" cx="67.102" cy="20.417" rx="6.003" ry="5.992"/><path id="el_Gbj1CcC0Iwv" d="M61.274,39.965l2.736,-4.732l-8.407,-4.861l-2.736,4.732l8.407,4.861Z"/><ellipse id="el_UyX11aW1CGM" cx="49.974" cy="30.244" rx="5.976" ry="5.98"/><path id="el_1BsIlNCtCcY" d="M47.218,25.055l5.491,0.011l0.018,-9.427l-5.491,-0.011l-0.018,9.427Z"/><ellipse id="el_OTmI0YS-ENr" cx="50.005" cy="10.501" rx="6.006" ry="5.994"/></svg>