<svg viewBox="0 0 100 100" version="1.1" xmlns="http://www.w3.org/2000/svg" xmlns:xlink="http://www.w3.org/1999/xlink" xml:space="preserve" style="fill-rule:evenodd;clip-rule:evenodd;stroke-linejoin:round;stroke-miterlimit:1.41421;" id="el_aZmIFx5y1"><style>@-webkit-keyframes kf_el_qhyr-f9gCAL_an_CFNRaO0Aj{49.55%{opacity: 1;}50%{opacity: 0;}99.55%{opacity: 0;}100%{opacity: 1;}0%{opacity: 1;}}@keyframes kf_el_qhyr-f9gCAL_an_CFNRaO0Aj{49.55%{opacity: 1;}50%{opacity: 0;}99.55%{opacity: 0;}100%{opacity: 1;}0%{opacity: 1;}}@-webkit-keyframes kf_el_5SfC8_ogLTZ_an_V75X6W-gE{48.20%{opacity: 1;}48.65%{opacity: 0;}98.20%{opacity: 0;}98.65%{opacity: 1;}0%{opacity: 1;}100%{opacity: 1;}}@keyframes kf_el_5SfC8_ogLTZ_an_V75X6W-gE{48.20%{opacity: 1;}48.65%{opacity: 0;}98.20%{opacity: 0;}98.65%{opacity: 1;}0%{opacity: 1;}100%{opacity: 1;}}@-webkit-keyframes kf_el_nImbuR4p47g_an_piyRtrOOB{46.85%{opacity: 1;}47.30%{opacity: 0;}96.85%{opacity: 0;}97.30%{opacity: 1;}0%{opacity: 1;}100%{opacity: 1;}}@keyframes kf_el_nImbuR4p47g_an_piyRtrOOB{46.85%{opacity: 1;}47.30%{opacity: 0;}96.85%{opacity: 0;}97.30%{opacity: 1;}0%{opacity: 1;}100%{opacity: 1;}}@-webkit-keyframes kf_el_UGygMILi56t_an_Pmqom0Ujg{45.50%{opacity: 1;}45.95%{opacity: 0;}95.50%{opacity: 0;}95.95%{opacity: 1;}0%{opacity: 1;}100%{opacity: 1;}}@keyframes kf_el_UGygMILi56t_an_Pmqom0Ujg{45.50%{opacity: 1;}45.95%{opacity: 0;}95.50%{opacity: 0;}95.95%{opacity: 1;}0%{opacity: 1;}100%{opacity: 1;}}@-webkit-keyframes kf_el_EMQvR8uUr42_an_HPdjNduRo{44.14%{opacity: 1;}44.59%{opacity: 0;}94.14%{opacity: 0;}94.59%{opacity: 1;}0%{opacity: 1;}100%{opacity: 1;}}@keyframes kf_el_EMQvR8uUr42_an_HPdjNduRo{44.14%{opacity: 1;}44.59%{opacity: 0;}94.14%{opacity: 0;}94.59%{opacity: 1;}0%{opacity: 1;}100%{opacity: 1;}}@-webkit-keyframes kf_el_bl689NsuNAJ_an_OP9O2-brY{42.79%{opacity: 1;}43.24%{opacity: 0;}92.79%{opacity: 0;}93.24%{opacity: 1;}0%{opacity: 1;}100%{opacity: 1;}}@keyframes kf_el_bl689NsuNAJ_an_OP9O2-brY{42.79%{opacity: 1;}43.24%{opacity: 0;}92.79%{opacity: 0;}93.24%{opacity: 1;}0%{opacity: 1;}100%{opacity: 1;}}@-webkit-keyframes kf_el_B_wPr_T-0Vj_an_-8r-9YajG{41.44%{opacity: 1;}41.89%{opacity: 0;}91.44%{opacity: 0;}91.89%{opacity: 1;}0%{opacity: 1;}100%{opacity: 1;}}@keyframes kf_el_B_wPr_T-0Vj_an_-8r-9YajG{41.44%{opacity: 1;}41.89%{opacity: 0;}91.44%{opacity: 0;}91.89%{opacity: 1;}0%{opacity: 1;}100%{opacity: 1;}}@-webkit-keyframes kf_el_tK_CHBjMJUx_an_AYjmYAxwz{40.09%{opacity: 1;}40.54%{opacity: 0;}90.09%{opacity: 0;}90.54%{opacity: 1;}0%{opacity: 1;}100%{opacity: 1;}}@keyframes kf_el_tK_CHBjMJUx_an_AYjmYAxwz{40.09%{opacity: 1;}40.54%{opacity: 0;}90.09%{opacity: 0;}90.54%{opacity: 1;}0%{opacity: 1;}100%{opacity: 1;}}@-webkit-keyframes kf_el_YUK4aGGEXl2_an_s6EhjuLuB{38.74%{opacity: 1;}39.19%{opacity: 0;}88.74%{opacity: 0;}89.19%{opacity: 1;}0%{opacity: 1;}100%{opacity: 1;}}@keyframes kf_el_YUK4aGGEXl2_an_s6EhjuLuB{38.74%{opacity: 1;}39.19%{opacity: 0;}88.74%{opacity: 0;}89.19%{opacity: 1;}0%{opacity: 1;}100%{opacity: 1;}}@-webkit-keyframes kf_el_fnwHaiQvmlA_an_l4Q6aoGCP{37.39%{opacity: 1;}37.84%{opacity: 0;}87.39%{opacity: 0;}87.84%{opacity: 1;}0%{opacity: 1;}100%{opacity: 1;}}@keyframes kf_el_fnwHaiQvmlA_an_l4Q6aoGCP{37.39%{opacity: 1;}37.84%{opacity: 0;}87.39%{opacity: 0;}87.84%{opacity: 1;}0%{opacity: 1;}100%{opacity: 1;}}@-webkit-keyframes kf_el_FFMHZr9OJxQ_an_59aCpofmm{36.04%{opacity: 1;}36.49%{opacity: 0;}86.04%{opacity: 0;}86.49%{opacity: 1;}0%{opacity: 1;}100%{opacity: 1;}}@keyframes kf_el_FFMHZr9OJxQ_an_59aCpofmm{36.04%{opacity: 1;}36.49%{opacity: 0;}86.04%{opacity: 0;}86.49%{opacity: 1;}0%{opacity: 1;}100%{opacity: 1;}}@-webkit-keyframes kf_el_vdjNCGE7_oZ_an_pMYc3ca_Z{34.68%{opacity: 1;}35.14%{opacity: 0;}84.68%{opacity: 0;}85.14%{opacity: 1;}0%{opacity: 1;}100%{opacity: 1;}}@keyframes kf_el_vdjNCGE7_oZ_an_pMYc3ca_Z{34.68%{opacity: 1;}35.14%{opacity: 0;}84.68%{opacity: 0;}85.14%{opacity: 1;}0%{opacity: 1;}100%{opacity: 1;}}@-webkit-keyframes kf_el_uaOJeaoMSbu_an_IvCbfXNid{33.33%{opacity: 1;}33.78%{opacity: 0;}83.33%{opacity: 0;}83.78%{opacity: 1;}0%{opacity: 1;}100%{opacity: 1;}}@keyframes kf_el_uaOJeaoMSbu_an_IvCbfXNid{33.33%{opacity: 1;}33.78%{opacity: 0;}83.33%{opacity: 0;}83.78%{opacity: 1;}0%{opacity: 1;}100%{opacity: 1;}}@-webkit-keyframes kf_el_ZSMterZwNQg_an_M5j-RTKlU{31.98%{opacity: 1;}32.43%{opacity: 0;}81.98%{opacity: 0;}82.43%{opacity: 1;}0%{opacity: 1;}100%{opacity: 1;}}@keyframes kf_el_ZSMterZwNQg_an_M5j-RTKlU{31.98%{opacity: 1;}32.43%{opacity: 0;}81.98%{opacity: 0;}82.43%{opacity: 1;}0%{opacity: 1;}100%{opacity: 1;}}@-webkit-keyframes kf_el_STYCCQHdxYA_an_GKAuW15N9{30.63%{opacity: 1;}31.08%{opacity: 0;}80.63%{opacity: 0;}81.08%{opacity: 1;}0%{opacity: 1;}100%{opacity: 1;}}@keyframes kf_el_STYCCQHdxYA_an_GKAuW15N9{30.63%{opacity: 1;}31.08%{opacity: 0;}80.63%{opacity: 0;}81.08%{opacity: 1;}0%{opacity: 1;}100%{opacity: 1;}}@-webkit-keyframes kf_el__euRZlws_b3_an_SWElA6Ttt{29.28%{opacity: 1;}29.73%{opacity: 0;}79.28%{opacity: 0;}79.73%{opacity: 1;}0%{opacity: 1;}100%{opacity: 1;}}@keyframes kf_el__euRZlws_b3_an_SWElA6Ttt{29.28%{opacity: 1;}29.73%{opacity: 0;}79.28%{opacity: 0;}79.73%{opacity: 1;}0%{opacity: 1;}100%{opacity: 1;}}@-webkit-keyframes kf_el_b1E2k6zfgnT_an_tPLTv8A5B{27.93%{opacity: 1;}28.38%{opacity: 0;}77.93%{opacity: 0;}78.38%{opacity: 1;}0%{opacity: 1;}100%{opacity: 1;}}@keyframes kf_el_b1E2k6zfgnT_an_tPLTv8A5B{27.93%{opacity: 1;}28.38%{opacity: 0;}77.93%{opacity: 0;}78.38%{opacity: 1;}0%{opacity: 1;}100%{opacity: 1;}}@-webkit-keyframes kf_el_F1QfZWXe0Ix_an_17nkz572T{26.58%{opacity: 1;}27.03%{opacity: 0;}76.58%{opacity: 0;}77.03%{opacity: 1;}0%{opacity: 1;}100%{opacity: 1;}}@keyframes kf_el_F1QfZWXe0Ix_an_17nkz572T{26.58%{opacity: 1;}27.03%{opacity: 0;}76.58%{opacity: 0;}77.03%{opacity: 1;}0%{opacity: 1;}100%{opacity: 1;}}@-webkit-keyframes kf_el_RcU8XFaNzgT_an_L5Bmyu0CK{25.23%{opacity: 1;}25.68%{opacity: 0;}75.23%{opacity: 0;}75.68%{opacity: 1;}0%{opacity: 1;}100%{opacity: 1;}}@keyframes kf_el_RcU8XFaNzgT_an_L5Bmyu0CK{25.23%{opacity: 1;}25.68%{opacity: 0;}75.23%{opacity: 0;}75.68%{opacity: 1;}0%{opacity: 1;}100%{opacity: 1;}}@-webkit-keyframes kf_el_GQg8IkPXlfu_an_ouHhf-Hzu{23.87%{opacity: 1;}24.32%{opacity: 0;}73.87%{opacity: 0;}74.32%{opacity: 1;}0%{opacity: 1;}100%{opacity: 1;}}@keyframes kf_el_GQg8IkPXlfu_an_ouHhf-Hzu{23.87%{opacity: 1;}24.32%{opacity: 0;}73.87%{opacity: 0;}74.32%{opacity: 1;}0%{opacity: 1;}100%{opacity: 1;}}@-webkit-keyframes kf_el_lkDNK-fkPco_an_rOcLliqUQ{22.52%{opacity: 1;}22.97%{opacity: 0;}72.52%{opacity: 0;}72.97%{opacity: 1;}0%{opacity: 1;}100%{opacity: 1;}}@keyframes kf_el_lkDNK-fkPco_an_rOcLliqUQ{22.52%{opacity: 1;}22.97%{opacity: 0;}72.52%{opacity: 0;}72.97%{opacity: 1;}0%{opacity: 1;}100%{opacity: 1;}}@-webkit-keyframes kf_el_x-H7oJHAjUu_an_DZPcgtwxP{21.17%{opacity: 1;}21.62%{opacity: 0;}71.17%{opacity: 0;}71.62%{opacity: 1;}0%{opacity: 1;}100%{opacity: 1;}}@keyframes kf_el_x-H7oJHAjUu_an_DZPcgtwxP{21.17%{opacity: 1;}21.62%{opacity: 0;}71.17%{opacity: 0;}71.62%{opacity: 1;}0%{opacity: 1;}100%{opacity: 1;}}@-webkit-keyframes kf_el_dB7FlQf9XBD_an_4KGHnbHbC{19.82%{opacity: 1;}20.27%{opacity: 0;}69.82%{opacity: 0;}70.27%{opacity: 1;}0%{opacity: 1;}100%{opacity: 1;}}@keyframes kf_el_dB7FlQf9XBD_an_4KGHnbHbC{19.82%{opacity: 1;}20.27%{opacity: 0;}69.82%{opacity: 0;}70.27%{opacity: 1;}0%{opacity: 1;}100%{opacity: 1;}}@-webkit-keyframes kf_el_4lNvR5Xvuh_an_2uGZCeQsX{18.47%{opacity: 1;}18.92%{opacity: 0;}68.47%{opacity: 0;}68.92%{opacity: 1;}0%{opacity: 1;}100%{opacity: 1;}}@keyframes kf_el_4lNvR5Xvuh_an_2uGZCeQsX{18.47%{opacity: 1;}18.92%{opacity: 0;}68.47%{opacity: 0;}68.92%{opacity: 1;}0%{opacity: 1;}100%{opacity: 1;}}@-webkit-keyframes kf_el_wTM6JqcHzV_an_CJwYL5GMF{17.12%{opacity: 1;}17.57%{opacity: 0;}67.12%{opacity: 0;}67.57%{opacity: 1;}0%{opacity: 1;}100%{opacity: 1;}}@keyframes kf_el_wTM6JqcHzV_an_CJwYL5GMF{17.12%{opacity: 1;}17.57%{opacity: 0;}67.12%{opacity: 0;}67.57%{opacity: 1;}0%{opacity: 1;}100%{opacity: 1;}}@-webkit-keyframes kf_el_ocu-KBbnuI_an_pxEWoz3b6{15.77%{opacity: 1;}16.22%{opacity: 0;}65.77%{opacity: 0;}66.22%{opacity: 1;}0%{opacity: 1;}100%{opacity: 1;}}@keyframes kf_el_ocu-KBbnuI_an_pxEWoz3b6{15.77%{opacity: 1;}16.22%{opacity: 0;}65.77%{opacity: 0;}66.22%{opacity: 1;}0%{opacity: 1;}100%{opacity: 1;}}@-webkit-keyframes kf_el_lGOo-Wv-44_an_qhVmmn9kx{14.41%{opacity: 1;}14.86%{opacity: 0;}64.41%{opacity: 0;}64.86%{opacity: 1;}0%{opacity: 1;}100%{opacity: 1;}}@keyframes kf_el_lGOo-Wv-44_an_qhVmmn9kx{14.41%{opacity: 1;}14.86%{opacity: 0;}64.41%{opacity: 0;}64.86%{opacity: 1;}0%{opacity: 1;}100%{opacity: 1;}}@-webkit-keyframes kf_el_G7eKGxh1FB_an_QsJcHUKZY{13.06%{opacity: 1;}13.51%{opacity: 0;}63.06%{opacity: 0;}63.51%{opacity: 1;}0%{opacity: 1;}100%{opacity: 1;}}@keyframes kf_el_G7eKGxh1FB_an_QsJcHUKZY{13.06%{opacity: 1;}13.51%{opacity: 0;}63.06%{opacity: 0;}63.51%{opacity: 1;}0%{opacity: 1;}100%{opacity: 1;}}@-webkit-keyframes kf_el_8IA_smvbiQ_an_8y5o9eELq{11.71%{opacity: 1;}12.16%{opacity: 0;}61.71%{opacity: 0;}62.16%{opacity: 1;}0%{opacity: 1;}100%{opacity: 1;}}@keyframes kf_el_8IA_smvbiQ_an_8y5o9eELq{11.71%{opacity: 1;}12.16%{opacity: 0;}61.71%{opacity: 0;}62.16%{opacity: 1;}0%{opacity: 1;}100%{opacity: 1;}}@-webkit-keyframes kf_el_mHyqPqQOfH_an_jPACMJ701{10.36%{opacity: 1;}10.81%{opacity: 0;}60.36%{opacity: 0;}60.81%{opacity: 1;}0%{opacity: 1;}100%{opacity: 1;}}@keyframes kf_el_mHyqPqQOfH_an_jPACMJ701{10.36%{opacity: 1;}10.81%{opacity: 0;}60.36%{opacity: 0;}60.81%{opacity: 1;}0%{opacity: 1;}100%{opacity: 1;}}@-webkit-keyframes kf_el_aD7IBU7gfn_an_4lyWINAS-{9.01%{opacity: 1;}9.46%{opacity: 0;}59.01%{opacity: 0;}59.46%{opacity: 1;}0%{opacity: 1;}100%{opacity: 1;}}@keyframes kf_el_aD7IBU7gfn_an_4lyWINAS-{9.01%{opacity: 1;}9.46%{opacity: 0;}59.01%{opacity: 0;}59.46%{opacity: 1;}0%{opacity: 1;}100%{opacity: 1;}}@-webkit-keyframes kf_el_5iEJThQK6X_an_UOvFKSH_g{7.66%{opacity: 1;}8.11%{opacity: 0;}57.66%{opacity: 0;}58.11%{opacity: 1;}0%{opacity: 1;}100%{opacity: 1;}}@keyframes kf_el_5iEJThQK6X_an_UOvFKSH_g{7.66%{opacity: 1;}8.11%{opacity: 0;}57.66%{opacity: 0;}58.11%{opacity: 1;}0%{opacity: 1;}100%{opacity: 1;}}@-webkit-keyframes kf_el_ZBjlF1d6qV_an_xDr3TosGZ{6.31%{opacity: 1;}6.76%{opacity: 0;}56.31%{opacity: 0;}56.76%{opacity: 1;}0%{opacity: 1;}100%{opacity: 1;}}@keyframes kf_el_ZBjlF1d6qV_an_xDr3TosGZ{6.31%{opacity: 1;}6.76%{opacity: 0;}56.31%{opacity: 0;}56.76%{opacity: 1;}0%{opacity: 1;}100%{opacity: 1;}}@-webkit-keyframes kf_el_HR9PxZ3KXv_an_96PaEmdZM{4.95%{opacity: 1;}5.41%{opacity: 0;}54.95%{opacity: 0;}55.41%{opacity: 1;}0%{opacity: 1;}100%{opacity: 1;}}@keyframes kf_el_HR9PxZ3KXv_an_96PaEmdZM{4.95%{opacity: 1;}5.41%{opacity: 0;}54.95%{opacity: 0;}55.41%{opacity: 1;}0%{opacity: 1;}100%{opacity: 1;}}@-webkit-keyframes kf_el_6ZfGdV4alG_an_99juc4MK1{3.60%{opacity: 1;}4.05%{opacity: 0;}53.60%{opacity: 0;}54.05%{opacity: 1;}0%{opacity: 1;}100%{opacity: 1;}}@keyframes kf_el_6ZfGdV4alG_an_99juc4MK1{3.60%{opacity: 1;}4.05%{opacity: 0;}53.60%{opacity: 0;}54.05%{opacity: 1;}0%{opacity: 1;}100%{opacity: 1;}}@-webkit-keyframes kf_el_rIZMZo3ZH2_an_ByvkmqDQ9{2.25%{opacity: 1;}2.70%{opacity: 0;}52.25%{opacity: 0;}52.70%{opacity: 1;}0%{opacity: 1;}100%{opacity: 1;}}@keyframes kf_el_rIZMZo3ZH2_an_ByvkmqDQ9{2.25%{opacity: 1;}2.70%{opacity: 0;}52.25%{opacity: 0;}52.70%{opacity: 1;}0%{opacity: 1;}100%{opacity: 1;}}@-webkit-keyframes kf_el_uFzXkqi2Fv_an_V2kWDkLCh{0.90%{opacity: 1;}1.35%{opacity: 0;}50.90%{opacity: 0;}51.35%{opacity: 1;}0%{opacity: 1;}100%{opacity: 1;}}@keyframes kf_el_uFzXkqi2Fv_an_V2kWDkLCh{0.90%{opacity: 1;}1.35%{opacity: 0;}50.90%{opacity: 0;}51.35%{opacity: 1;}0%{opacity: 1;}100%{opacity: 1;}}#el_aZmIFx5y1 *{-webkit-animation-duration: 7.4s;animation-duration: 7.4s;-webkit-animation-iteration-count: infinite;animation-iteration-count: infinite;-webkit-animation-timing-function: cubic-bezier(0, 0, 1, 1);animation-timing-function: cubic-bezier(0, 0, 1, 1);}#el_-Ea4Br_zI4{fill: #808080;fill-rule: nonzero;}#el_uFzXkqi2Fv{fill: #050505;-webkit-animation-fill-mode: backwards;animation-fill-mode: backwards;opacity: 1;-webkit-animation-name: kf_el_uFzXkqi2Fv_an_V2kWDkLCh;animation-name: kf_el_uFzXkqi2Fv_an_V2kWDkLCh;-webkit-animation-timing-function: cubic-bezier(0, 0, 1, 1);animation-timing-function: cubic-bezier(0, 0, 1, 1);}#el_rIZMZo3ZH2{fill: #050505;-webkit-animation-fill-mode: backwards;animation-fill-mode: backwards;opacity: 1;-webkit-animation-name: kf_el_rIZMZo3ZH2_an_ByvkmqDQ9;animation-name: kf_el_rIZMZo3ZH2_an_ByvkmqDQ9;-webkit-animation-timing-function: cubic-bezier(0, 0, 1, 1);animation-timing-function: cubic-bezier(0, 0, 1, 1);}#el_6ZfGdV4alG{fill: #050505;-webkit-animation-fill-mode: backwards;animation-fill-mode: backwards;opacity: 1;-webkit-animation-name: kf_el_6ZfGdV4alG_an_99juc4MK1;animation-name: kf_el_6ZfGdV4alG_an_99juc4MK1;-webkit-animation-timing-function: cubic-bezier(0, 0, 1, 1);animation-timing-function: cubic-bezier(0, 0, 1, 1);}#el_HR9PxZ3KXv{fill: #050505;-webkit-animation-fill-mode: backwards;animation-fill-mode: backwards;opacity: 1;-webkit-animation-name: kf_el_HR9PxZ3KXv_an_96PaEmdZM;animation-name: kf_el_HR9PxZ3KXv_an_96PaEmdZM;-webkit-animation-timing-function: cubic-bezier(0, 0, 1, 1);animation-timing-function: cubic-bezier(0, 0, 1, 1);}#el_ZBjlF1d6qV{fill: #050505;-webkit-animation-fill-mode: backwards;animation-fill-mode: backwards;opacity: 1;-webkit-animation-name: kf_el_ZBjlF1d6qV_an_xDr3TosGZ;animation-name: kf_el_ZBjlF1d6qV_an_xDr3TosGZ;-webkit-animation-timing-function: cubic-bezier(0, 0, 1, 1);animation-timing-function: cubic-bezier(0, 0, 1, 1);}#el_5iEJThQK6X{fill: #050505;-webkit-animation-fill-mode: backwards;animation-fill-mode: backwards;opacity: 1;-webkit-animation-name: kf_el_5iEJThQK6X_an_UOvFKSH_g;animation-name: kf_el_5iEJThQK6X_an_UOvFKSH_g;-webkit-animation-timing-function: cubic-bezier(0, 0, 1, 1);animation-timing-function: cubic-bezier(0, 0, 1, 1);}#el_aD7IBU7gfn{fill: #050505;-webkit-animation-fill-mode: backwards;animation-fill-mode: backwards;opacity: 1;-webkit-animation-name: kf_el_aD7IBU7gfn_an_4lyWINAS-;animation-name: kf_el_aD7IBU7gfn_an_4lyWINAS-;-webkit-animation-timing-function: cubic-bezier(0, 0, 1, 1);animation-timing-function: cubic-bezier(0, 0, 1, 1);}#el_mHyqPqQOfH{fill: #050505;-webkit-animation-fill-mode: backwards;animation-fill-mode: backwards;opacity: 1;-webkit-animation-name: kf_el_mHyqPqQOfH_an_jPACMJ701;animation-name: kf_el_mHyqPqQOfH_an_jPACMJ701;-webkit-animation-timing-function: cubic-bezier(0, 0, 1, 1);animation-timing-function: cubic-bezier(0, 0, 1, 1);}#el_8IA_smvbiQ{fill: #050505;-webkit-animation-fill-mode: backwards;animation-fill-mode: backwards;opacity: 1;-webkit-animation-name: kf_el_8IA_smvbiQ_an_8y5o9eELq;animation-name: kf_el_8IA_smvbiQ_an_8y5o9eELq;-webkit-animation-timing-function: cubic-bezier(0, 0, 1, 1);animation-timing-function: cubic-bezier(0, 0, 1, 1);}#el_G7eKGxh1FB{fill: #050505;-webkit-animation-fill-mode: backwards;animation-fill-mode: backwards;opacity: 1;-webkit-animation-name: kf_el_G7eKGxh1FB_an_QsJcHUKZY;animation-name: kf_el_G7eKGxh1FB_an_QsJcHUKZY;-webkit-animation-timing-function: cubic-bezier(0, 0, 1, 1);animation-timing-function: cubic-bezier(0, 0, 1, 1);}#el_lGOo-Wv-44{fill: #050505;-webkit-animation-fill-mode: backwards;animation-fill-mode: backwards;opacity: 1;-webkit-animation-name: kf_el_lGOo-Wv-44_an_qhVmmn9kx;animation-name: kf_el_lGOo-Wv-44_an_qhVmmn9kx;-webkit-animation-timing-function: cubic-bezier(0, 0, 1, 1);animation-timing-function: cubic-bezier(0, 0, 1, 1);}#el_ocu-KBbnuI{fill: #050505;-webkit-animation-fill-mode: backwards;animation-fill-mode: backwards;opacity: 1;-webkit-animation-name: kf_el_ocu-KBbnuI_an_pxEWoz3b6;animation-name: kf_el_ocu-KBbnuI_an_pxEWoz3b6;-webkit-animation-timing-function: cubic-bezier(0, 0, 1, 1);animation-timing-function: cubic-bezier(0, 0, 1, 1);}#el_wTM6JqcHzV{fill: #050505;-webkit-animation-fill-mode: backwards;animation-fill-mode: backwards;opacity: 1;-webkit-animation-name: kf_el_wTM6JqcHzV_an_CJwYL5GMF;animation-name: kf_el_wTM6JqcHzV_an_CJwYL5GMF;-webkit-animation-timing-function: cubic-bezier(0, 0, 1, 1);animation-timing-function: cubic-bezier(0, 0, 1, 1);}#el_4lNvR5Xvuh{fill: #050505;-webkit-animation-fill-mode: backwards;animation-fill-mode: backwards;opacity: 1;-webkit-animation-name: kf_el_4lNvR5Xvuh_an_2uGZCeQsX;animation-name: kf_el_4lNvR5Xvuh_an_2uGZCeQsX;-webkit-animation-timing-function: cubic-bezier(0, 0, 1, 1);animation-timing-function: cubic-bezier(0, 0, 1, 1);}#el_dB7FlQf9XBD{fill: #050505;-webkit-animation-fill-mode: backwards;animation-fill-mode: backwards;opacity: 1;-webkit-animation-name: kf_el_dB7FlQf9XBD_an_4KGHnbHbC;animation-name: kf_el_dB7FlQf9XBD_an_4KGHnbHbC;-webkit-animation-timing-function: cubic-bezier(0, 0, 1, 1);animation-timing-function: cubic-bezier(0, 0, 1, 1);}#el_x-H7oJHAjUu{fill: #050505;-webkit-animation-fill-mode: backwards;animation-fill-mode: backwards;opacity: 1;-webkit-animation-name: kf_el_x-H7oJHAjUu_an_DZPcgtwxP;animation-name: kf_el_x-H7oJHAjUu_an_DZPcgtwxP;-webkit-animation-timing-function: cubic-bezier(0, 0, 1, 1);animation-timing-function: cubic-bezier(0, 0, 1, 1);}#el_lkDNK-fkPco{fill: #050505;-webkit-animation-fill-mode: backwards;animation-fill-mode: backwards;opacity: 1;-webkit-animation-name: kf_el_lkDNK-fkPco_an_rOcLliqUQ;animation-name: kf_el_lkDNK-fkPco_an_rOcLliqUQ;-webkit-animation-timing-function: cubic-bezier(0, 0, 1, 1);animation-timing-function: cubic-bezier(0, 0, 1, 1);}#el_GQg8IkPXlfu{fill: #050505;-webkit-animation-fill-mode: backwards;animation-fill-mode: backwards;opacity: 1;-webkit-animation-name: kf_el_GQg8IkPXlfu_an_ouHhf-Hzu;animation-name: kf_el_GQg8IkPXlfu_an_ouHhf-Hzu;-webkit-animation-timing-function: cubic-bezier(0, 0, 1, 1);animation-timing-function: cubic-bezier(0, 0, 1, 1);}#el_RcU8XFaNzgT{fill: #050505;-webkit-animation-fill-mode: backwards;animation-fill-mode: backwards;opacity: 1;-webkit-animation-name: kf_el_RcU8XFaNzgT_an_L5Bmyu0CK;animation-name: kf_el_RcU8XFaNzgT_an_L5Bmyu0CK;-webkit-animation-timing-function: cubic-bezier(0, 0, 1, 1);animation-timing-function: cubic-bezier(0, 0, 1, 1);}#el_F1QfZWXe0Ix{fill: #050505;-webkit-animation-fill-mode: backwards;animation-fill-mode: backwards;opacity: 1;-webkit-animation-name: kf_el_F1QfZWXe0Ix_an_17nkz572T;animation-name: kf_el_F1QfZWXe0Ix_an_17nkz572T;-webkit-animation-timing-function: cubic-bezier(0, 0, 1, 1);animation-timing-function: cubic-bezier(0, 0, 1, 1);}#el_b1E2k6zfgnT{fill: #050505;-webkit-animation-fill-mode: backwards;animation-fill-mode: backwards;opacity: 1;-webkit-animation-name: kf_el_b1E2k6zfgnT_an_tPLTv8A5B;animation-name: kf_el_b1E2k6zfgnT_an_tPLTv8A5B;-webkit-animation-timing-function: cubic-bezier(0, 0, 1, 1);animation-timing-function: cubic-bezier(0, 0, 1, 1);}#el__euRZlws_b3{fill: #050505;-webkit-animation-fill-mode: backwards;animation-fill-mode: backwards;opacity: 1;-webkit-animation-name: kf_el__euRZlws_b3_an_SWElA6Ttt;animation-name: kf_el__euRZlws_b3_an_SWElA6Ttt;-webkit-animation-timing-function: cubic-bezier(0, 0, 1, 1);animation-timing-function: cubic-bezier(0, 0, 1, 1);}#el_STYCCQHdxYA{fill: #050505;-webkit-animation-fill-mode: backwards;animation-fill-mode: backwards;opacity: 1;-webkit-animation-name: kf_el_STYCCQHdxYA_an_GKAuW15N9;animation-name: kf_el_STYCCQHdxYA_an_GKAuW15N9;-webkit-animation-timing-function: cubic-bezier(0, 0, 1, 1);animation-timing-function: cubic-bezier(0, 0, 1, 1);}#el_ZSMterZwNQg{fill: #050505;-webkit-animation-fill-mode: backwards;animation-fill-mode: backwards;opacity: 1;-webkit-animation-name: kf_el_ZSMterZwNQg_an_M5j-RTKlU;animation-name: kf_el_ZSMterZwNQg_an_M5j-RTKlU;-webkit-animation-timing-function: cubic-bezier(0, 0, 1, 1);animation-timing-function: cubic-bezier(0, 0, 1, 1);}#el_uaOJeaoMSbu{fill: #050505;-webkit-animation-fill-mode: backwards;animation-fill-mode: backwards;opacity: 1;-webkit-animation-name: kf_el_uaOJeaoMSbu_an_IvCbfXNid;animation-name: kf_el_uaOJeaoMSbu_an_IvCbfXNid;-webkit-animation-timing-function: cubic-bezier(0, 0, 1, 1);animation-timing-function: cubic-bezier(0, 0, 1, 1);}#el_vdjNCGE7_oZ{fill: #050505;-webkit-animation-fill-mode: backwards;animation-fill-mode: backwards;opacity: 1;-webkit-animation-name: kf_el_vdjNCGE7_oZ_an_pMYc3ca_Z;animation-name: kf_el_vdjNCGE7_oZ_an_pMYc3ca_Z;-webkit-animation-timing-function: cubic-bezier(0, 0, 1, 1);animation-timing-function: cubic-bezier(0, 0, 1, 1);}#el_FFMHZr9OJxQ{fill: #050505;-webkit-animation-fill-mode: backwards;animation-fill-mode: backwards;opacity: 1;-webkit-animation-name: kf_el_FFMHZr9OJxQ_an_59aCpofmm;animation-name: kf_el_FFMHZr9OJxQ_an_59aCpofmm;-webkit-animation-timing-function: cubic-bezier(0, 0, 1, 1);animation-timing-function: cubic-bezier(0, 0, 1, 1);}#el_fnwHaiQvmlA{fill: #050505;-webkit-animation-fill-mode: backwards;animation-fill-mode: backwards;opacity: 1;-webkit-animation-name: kf_el_fnwHaiQvmlA_an_l4Q6aoGCP;animation-name: kf_el_fnwHaiQvmlA_an_l4Q6aoGCP;-webkit-animation-timing-function: cubic-bezier(0, 0, 1, 1);animation-timing-function: cubic-bezier(0, 0, 1, 1);}#el_YUK4aGGEXl2{fill: #050505;-webkit-animation-fill-mode: backwards;animation-fill-mode: backwards;opacity: 1;-webkit-animation-name: kf_el_YUK4aGGEXl2_an_s6EhjuLuB;animation-name: kf_el_YUK4aGGEXl2_an_s6EhjuLuB;-webkit-animation-timing-function: cubic-bezier(0, 0, 1, 1);animation-timing-function: cubic-bezier(0, 0, 1, 1);}#el_tK_CHBjMJUx{fill: #050505;-webkit-animation-fill-mode: backwards;animation-fill-mode: backwards;opacity: 1;-webkit-animation-name: kf_el_tK_CHBjMJUx_an_AYjmYAxwz;animation-name: kf_el_tK_CHBjMJUx_an_AYjmYAxwz;-webkit-animation-timing-function: cubic-bezier(0, 0, 1, 1);animation-timing-function: cubic-bezier(0, 0, 1, 1);}#el_B_wPr_T-0Vj{fill: #050505;-webkit-animation-fill-mode: backwards;animation-fill-mode: backwards;opacity: 1;-webkit-animation-name: kf_el_B_wPr_T-0Vj_an_-8r-9YajG;animation-name: kf_el_B_wPr_T-0Vj_an_-8r-9YajG;-webkit-animation-timing-function: cubic-bezier(0, 0, 1, 1);animation-timing-function: cubic-bezier(0, 0, 1, 1);}#el_bl689NsuNAJ{fill: #050505;-webkit-animation-fill-mode: backwards;animation-fill-mode: backwards;opacity: 1;-webkit-animation-name: kf_el_bl689NsuNAJ_an_OP9O2-brY;animation-name: kf_el_bl689NsuNAJ_an_OP9O2-brY;-webkit-animation-timing-function: cubic-bezier(0, 0, 1, 1);animation-timing-function: cubic-bezier(0, 0, 1, 1);}#el_EMQvR8uUr42{fill: #050505;-webkit-animation-fill-mode: backwards;animation-fill-mode: backwards;opacity: 1;-webkit-animation-name: kf_el_EMQvR8uUr42_an_HPdjNduRo;animation-name: kf_el_EMQvR8uUr42_an_HPdjNduRo;-webkit-animation-timing-function: cubic-bezier(0, 0, 1, 1);animation-timing-function: cubic-bezier(0, 0, 1, 1);}#el_UGygMILi56t{fill: #050505;-webkit-animation-fill-mode: backwards;animation-fill-mode: backwards;opacity: 1;-webkit-animation-name: kf_el_UGygMILi56t_an_Pmqom0Ujg;animation-name: kf_el_UGygMILi56t_an_Pmqom0Ujg;-webkit-animation-timing-function: cubic-bezier(0, 0, 1, 1);animation-timing-function: cubic-bezier(0, 0, 1, 1);}#el_nImbuR4p47g{fill: #050505;-webkit-animation-fill-mode: backwards;animation-fill-mode: backwards;opacity: 1;-webkit-animation-name: kf_el_nImbuR4p47g_an_piyRtrOOB;animation-name: kf_el_nImbuR4p47g_an_piyRtrOOB;-webkit-animation-timing-function: cubic-bezier(0, 0, 1, 1);animation-timing-function: cubic-bezier(0, 0, 1, 1);}#el_5SfC8_ogLTZ{fill: #050505;-webkit-animation-fill-mode: backwards;animation-fill-mode: backwards;opacity: 1;-webkit-animation-name: kf_el_5SfC8_ogLTZ_an_V75X6W-gE;animation-name: kf_el_5SfC8_ogLTZ_an_V75X6W-gE;-webkit-animation-timing-function: cubic-bezier(0, 0, 1, 1);animation-timing-function: cubic-bezier(0, 0, 1, 1);}#el_qhyr-f9gCAL{fill: #050505;-webkit-animation-fill-mode: backwards;animation-fill-mode: backwards;opacity: 1;-webkit-animation-name: kf_el_qhyr-f9gCAL_an_CFNRaO0Aj;animation-name: kf_el_qhyr-f9gCAL_an_CFNRaO0Aj;-webkit-animation-timing-function: cubic-bezier(0, 0, 1, 1);animation-timing-function: cubic-bezier(0, 0, 1, 1);}</style><path d="M84.235,55.765c0.002,0 0.003,0 0.004,0c3.163,0 5.766,-2.602 5.766,-5.765c0,-3.163 -2.603,-5.765 -5.766,-5.765c-1.171,0 -2.314,0.356 -3.278,1.022l-8.101,-4.678c0.012,-0.152 0.023,-0.306 0.023,-0.462c0,-0.156 -0.011,-0.309 -0.023,-0.462l8.101,-4.678c0.963,0.665 2.107,1.022 3.277,1.022c3.163,0 5.765,-2.603 5.765,-5.765c0,-3.162 -2.602,-5.765 -5.765,-5.765c-1.17,0 -2.314,0.357 -3.277,1.022l-8.101,-4.678c0.012,-0.152 0.023,-0.306 0.023,-0.462c0,-0.002 0,-0.003 0,-0.005c0,-3.166 -2.606,-5.772 -5.772,-5.772c-3.166,0 -5.771,2.606 -5.771,5.772c0,3.166 2.605,5.771 5.771,5.771c1.172,0 2.317,-0.357 3.281,-1.023l8.101,4.679c-0.012,0.152 -0.022,0.306 -0.022,0.462c0,0.156 0.01,0.309 0.022,0.462l-8.101,4.678c-1.965,-1.36 -4.582,-1.36 -6.547,0l-8.104,-4.679c0.013,-0.153 0.024,-0.306 0.024,-0.462c-0.002,-2.22 -1.288,-4.25 -3.294,-5.2l0,-9.362c2.008,-0.953 3.294,-2.986 3.294,-5.209c0,-3.163 -2.602,-5.765 -5.765,-5.765c-3.163,0 -5.765,2.602 -5.765,5.765c0,2.223 1.286,4.256 3.294,5.209l0,9.36c-2.009,0.951 -3.296,2.984 -3.296,5.207c0,3.161 2.601,5.762 5.762,5.762c1.171,0 2.315,-0.358 3.278,-1.024l8.102,4.678c-0.012,0.153 -0.023,0.306 -0.023,0.462c0,0.156 0.011,0.31 0.023,0.462l-8.101,4.678c-1.965,-1.36 -4.582,-1.36 -6.547,0l-8.103,-4.678c0.013,-0.152 0.023,-0.306 0.023,-0.462c-0.001,-2.221 -1.286,-4.252 -3.294,-5.203l0,-9.359c2.009,-0.953 3.295,-2.986 3.295,-5.21c0,-3.162 -2.602,-5.765 -5.765,-5.765c-3.163,0 -5.765,2.603 -5.765,5.765c0,2.224 1.286,4.257 3.295,5.21l0,9.359c-0.279,0.132 -0.546,0.286 -0.8,0.461l-8.106,-4.679c0.012,-0.153 0.023,-0.306 0.023,-0.462c0,-0.003 0,-0.006 0,-0.01c0,-3.163 -2.603,-5.765 -5.765,-5.765c-3.163,0 -5.766,2.602 -5.766,5.765c0,2.224 1.287,4.258 3.296,5.21l0,9.366c-2.008,0.953 -3.294,2.986 -3.294,5.209c0,3.162 2.602,5.764 5.765,5.764c3.162,0 5.764,-2.602 5.764,-5.764c0,-2.223 -1.285,-4.256 -3.294,-5.209l0,-9.363c0.279,-0.132 0.546,-0.286 0.8,-0.46l8.103,4.678c-0.012,0.153 -0.024,0.306 -0.024,0.462c0.003,2.221 1.289,4.25 3.296,5.2l0,9.363c-2.007,0.95 -3.293,2.98 -3.296,5.2c0,0.157 0.012,0.309 0.024,0.463l-8.1,4.68c-0.961,-0.663 -2.102,-1.018 -3.27,-1.018c-3.162,0 -5.764,2.602 -5.764,5.764c0,3.162 2.602,5.764 5.764,5.764c3.162,0 5.764,-2.602 5.764,-5.764c0,-0.001 0,-0.002 0,-0.004c0,-0.156 -0.01,-0.309 -0.023,-0.462l8.103,-4.677c0.965,0.67 2.112,1.029 3.286,1.029c3.161,0 5.762,-2.601 5.762,-5.762c0,-2.228 -1.292,-4.264 -3.308,-5.213l0,-9.36c0.279,-0.132 0.546,-0.286 0.8,-0.46l8.102,4.679c-0.012,0.152 -0.024,0.305 -0.024,0.462c0.004,2.221 1.293,4.251 3.302,5.199l0,9.363c-2.007,0.95 -3.293,2.98 -3.295,5.2c0,0.156 0.012,0.31 0.023,0.463l-8.101,4.677c-0.962,-0.663 -2.104,-1.019 -3.273,-1.019c-3.161,0 -5.763,2.602 -5.763,5.763c0,3.162 2.602,5.764 5.763,5.764c3.162,0 5.764,-2.602 5.764,-5.764c0,0 0,-0.001 0,-0.001c0,-0.156 -0.011,-0.309 -0.024,-0.463l8.103,-4.677c0.254,0.174 0.522,0.328 0.8,0.461l0,9.359c-2.006,0.953 -3.29,2.984 -3.29,5.205c0,3.162 2.601,5.763 5.763,5.763c3.16,0 5.761,-2.6 5.762,-5.761c0,-0.156 -0.01,-0.309 -0.023,-0.462l8.103,-4.678c0.962,0.664 2.104,1.02 3.273,1.02c3.162,0 5.764,-2.602 5.764,-5.764c0,-3.162 -2.602,-5.764 -5.764,-5.764c-3.162,0 -5.764,2.602 -5.764,5.764c0,0.001 0,0.001 0,0.002c0,0.156 0.011,0.309 0.023,0.462l-8.102,4.678c-0.253,-0.175 -0.521,-0.329 -0.8,-0.46l0,-9.362c2.007,-0.951 3.293,-2.982 3.294,-5.203c0,-0.156 -0.01,-0.309 -0.023,-0.462l8.103,-4.677c1.965,1.359 4.582,1.359 6.547,0l8.101,4.677c-0.012,0.153 -0.022,0.306 -0.022,0.462c0,0.001 0,0.003 0,0.004c0,3.165 2.604,5.769 5.768,5.769c3.165,0 5.769,-2.604 5.769,-5.769c0,-3.164 -2.604,-5.769 -5.769,-5.769c-1.171,0 -2.314,0.357 -3.278,1.022l-8.105,-4.678c0.012,-0.153 0.023,-0.306 0.023,-0.462c-0.034,-3.139 -2.626,-5.703 -5.765,-5.703c-3.139,0 -5.73,2.564 -5.764,5.703c0,0.156 0.011,0.309 0.023,0.462l-8.103,4.678c-0.254,-0.175 -0.521,-0.329 -0.8,-0.46l0,-9.363c2.006,-0.95 3.292,-2.98 3.294,-5.2c0,-0.157 -0.011,-0.309 -0.023,-0.462l8.099,-4.678c1.965,1.359 4.582,1.359 6.547,0l8.102,4.677c-0.012,0.154 -0.023,0.306 -0.023,0.463c0,3.162 2.602,5.765 5.765,5.765" id="el_-Ea4Br_zI4"/><ellipse id="el_uFzXkqi2Fv" cx="49.965" cy="49.985" rx="5.957" ry="5.999"/><path id="el_rIZMZo3ZH2" d="M44.063,49.78l2.767,-4.785l-8.161,-4.719l-2.767,4.785l8.161,4.719Z"/><ellipse id="el_6ZfGdV4alG" cx="32.859" cy="40.144" rx="6.016" ry="5.989"/><path id="el_HR9PxZ3KXv" d="M35.636,25.51l-5.526,-0.008l-0.014,9.427l5.526,0.008l0.014,-9.427Z"/><ellipse id="el_ZBjlF1d6qV" cx="32.866" cy="20.347" rx="6.001" ry="5.987"/><path id="el_5iEJThQK6X" d="M26.895,39.88l2.753,-4.762l-8.161,-4.719l-2.753,4.762l8.161,4.719Z"/><ellipse id="el_aD7IBU7gfn" cx="15.772" cy="30.254" rx="5.986" ry="6.001"/><path id="el_mHyqPqQOfH" d="M13.008,44.819l5.529,-0.005l-0.009,-9.427l-5.528,0.005l0.008,9.427Z"/><ellipse id="el_8IA_smvbiQ" cx="15.806" cy="49.983" rx="5.991" ry="6.002"/><path id="el_G7eKGxh1FB" d="M30.084,54.726l5.526,0.007l0.012,-9.427l-5.527,-0.007l-0.011,9.427Z"/><ellipse id="el_lGOo-Wv-44" cx="32.894" cy="59.844" rx="6.023" ry="6.016"/><path id="el_ocu-KBbnuI" d="M29.765,64.833l-2.757,-4.768l-8.161,4.719l2.757,4.767l8.161,-4.718Z"/><ellipse id="el_wTM6JqcHzV" cx="15.735" cy="69.8" rx="6.006" ry="5.999"/><path id="el_4lNvR5Xvuh" d="M47.156,64.525l5.491,0.01l0.017,-9.497l-5.492,-0.009l-0.016,9.496Z"/><ellipse id="el_dB7FlQf9XBD" cx="49.97" cy="69.731" rx="5.999" ry="6.001"/><path id="el_x-H7oJHAjUu" d="M46.849,74.733l-2.726,-4.735l-8.261,4.756l2.727,4.735l8.26,-4.756Z"/><ellipse id="el_lkDNK-fkPco" cx="32.926" cy="79.623" rx="6.021" ry="6.017"/><path id="el_GQg8IkPXlfu" d="M47.277,84.326l5.467,-0.018l-0.029,-9.446l-5.468,0.017l0.03,9.447Z"/><ellipse id="el_RcU8XFaNzgT" cx="49.975" cy="89.499" rx="6.004" ry="6.009"/><path id="el_F1QfZWXe0Ix" d="M64.047,84.637l-2.734,-4.754l-8.201,4.716l2.734,4.755l8.201,-4.717Z"/><ellipse id="el_b1E2k6zfgnT" cx="67.141" cy="79.627" rx="5.998" ry="5.977"/><path id="el__euRZlws_b3" d="M64.018,64.812l-2.776,-4.801l-8.191,4.735l2.776,4.801l8.191,-4.735Z"/><ellipse id="el_STYCCQHdxYA" cx="67.097" cy="59.926" rx="5.995" ry="6.016"/><path id="el_ZSMterZwNQg" d="M78.371,69.6l2.76,-4.773l-8.161,-4.719l-2.76,4.773l8.161,4.719Z"/><ellipse id="el_uaOJeaoMSbu" cx="84.213" cy="69.792" rx="5.991" ry="5.986"/><path id="el_vdjNCGE7_oZ" d="M64.311,44.968l-2.777,-4.804l-8.595,4.97l2.777,4.803l8.595,-4.969Z"/><ellipse id="el_FFMHZr9OJxQ" cx="67.091" cy="40.14" rx="5.979" ry="6.012"/><path id="el_fnwHaiQvmlA" d="M78.446,49.806l2.736,-4.732l-8.161,-4.719l-2.736,4.732l8.161,4.719Z"/><ellipse id="el_YUK4aGGEXl2" cx="84.22" cy="49.982" rx="5.999" ry="6.017"/><path id="el_tK_CHBjMJUx" d="M81.072,35.252l-2.749,-4.757l-8.162,4.717l2.749,4.757l8.162,-4.717Z"/><ellipse id="el_B_wPr_T-0Vj" cx="84.292" cy="30.198" rx="6.012" ry="5.997"/><path id="el_bl689NsuNAJ" d="M78.408,30.016l2.699,-4.668l-8.161,-4.719l-2.699,4.668l8.161,4.719Z"/><ellipse id="el_EMQvR8uUr42" cx="67.102" cy="20.417" rx="6.003" ry="5.992"/><path id="el_UGygMILi56t" d="M61.274,39.965l2.736,-4.732l-8.407,-4.861l-2.736,4.732l8.407,4.861Z"/><ellipse id="el_nImbuR4p47g" cx="49.974" cy="30.244" rx="5.976" ry="5.98"/><path id="el_5SfC8_ogLTZ" d="M47.218,25.055l5.491,0.011l0.018,-9.427l-5.491,-0.011l-0.018,9.427Z"/><ellipse id="el_qhyr-f9gCAL" cx="50.005" cy="10.501" rx="6.006" ry="5.994"/></svg>