<svg viewBox="0 0 100 100" version="1.1" xmlns="http://www.w3.org/2000/svg" xmlns:xlink="http://www.w3.org/1999/xlink" xml:space="preserve" style="fill-rule:evenodd;clip-rule:evenodd;stroke-linejoin:round;stroke-miterlimit:1.41421;" id="el_ZdUGfQ4pV"><style>@-webkit-keyframes kf_el_tb5s1ZhKAez_an_xluNrrmbh{0%{opacity: 1;}69.52%{opacity: 1;}71.43%{opacity: 0;}98.10%{opacity: 0;}100%{opacity: 1;}}@keyframes kf_el_tb5s1ZhKAez_an_xluNrrmbh{0%{opacity: 1;}69.52%{opacity: 1;}71.43%{opacity: 0;}98.10%{opacity: 0;}100%{opacity: 1;}}@-webkit-keyframes kf_el_5T_Ep789qP0_an_NiEtTxcbT{0%{opacity: 1;}36.19%{opacity: 1;}38.10%{opacity: 0;}64.76%{opacity: 0;}66.67%{opacity: 1;}95.24%{opacity: 1;}100%{opacity: 1;}}@keyframes kf_el_5T_Ep789qP0_an_NiEtTxcbT{0%{opacity: 1;}36.19%{opacity: 1;}38.10%{opacity: 0;}64.76%{opacity: 0;}66.67%{opacity: 1;}95.24%{opacity: 1;}100%{opacity: 1;}}@-webkit-keyframes kf_el_iAkhbB6c_2_an_8BPDP3OAS{2.86%{opacity: 1;}4.76%{opacity: 0;}31.43%{opacity: 0;}33.33%{opacity: 1;}0%{opacity: 1;}100%{opacity: 1;}}@keyframes kf_el_iAkhbB6c_2_an_8BPDP3OAS{2.86%{opacity: 1;}4.76%{opacity: 0;}31.43%{opacity: 0;}33.33%{opacity: 1;}0%{opacity: 1;}100%{opacity: 1;}}#el_ZdUGfQ4pV *{-webkit-animation-duration: 3.5s;animation-duration: 3.5s;-webkit-animation-iteration-count: infinite;animation-iteration-count: infinite;-webkit-animation-timing-function: cubic-bezier(0, 0, 1, 1);animation-timing-function: cubic-bezier(0, 0, 1, 1);}#el_mJ06S_NbSH{fill: #050505;}#el_qrOxlDqnn7{fill: #050505;}#el_SVoRl_dkMe{fill: #050505;}#el_Yrvu99F2j-{fill: #050505;}#el_OK_sPouRCI{fill: #050505;}#el_iAkhbB6c_2{fill: #050505;-webkit-animation-fill-mode: backwards;animation-fill-mode: backwards;opacity: 1;-webkit-animation-name: kf_el_iAkhbB6c_2_an_8BPDP3OAS;animation-name: kf_el_iAkhbB6c_2_an_8BPDP3OAS;-webkit-animation-timing-function: cubic-bezier(0.42, 0, 0.58, 1);animation-timing-function: cubic-bezier(0.42, 0, 0.58, 1);}#el_2RUxduJAsD{fill: #050505;}#el_Ta9iyz1lsr{fill: #050505;}#el_YvGVByULGP{fill: #050505;}#el_gDs1X-Qxs0{fill: #050505;}#el_Mm2m1XNCEF{fill: #050505;}#el_6OZ7cWB9jO{fill: #050505;}#el_H27NEPO-uT{fill: #050505;}#el_fcJueqAu7T{fill: #050505;}#el_L2Yg1nVoFR{fill: #050505;}#el_ShpMxEHEyFa{fill: #050505;}#el_1knFrI1JCDA{fill: #050505;}#el_5T_Ep789qP0{fill: #050505;-webkit-animation-fill-mode: backwards;animation-fill-mode: backwards;opacity: 1;-webkit-animation-name: kf_el_5T_Ep789qP0_an_NiEtTxcbT;animation-name: kf_el_5T_Ep789qP0_an_NiEtTxcbT;-webkit-animation-timing-function: cubic-bezier(0, 0, 1, 1);animation-timing-function: cubic-bezier(0, 0, 1, 1);}#el_b6eRDGjJmJ-{fill: #050505;}#el_vwTI4Zg9c-1{fill: #050505;}#el_FEIIP_UFcNe{fill: #050505;}#el_KFHXURNFQGk{fill: #050505;}#el_jk97jZC6BGB{fill: #050505;}#el_uQ9OYRTiDVZ{fill: #050505;}#el_DgMnwiDVOf2{fill: #050505;}#el_XfyJwKXBUEA{fill: #050505;}#el_LYjf7eKyihe{fill: #050505;}#el_tSfchmmPkTe{fill: #050505;}#el_3EcvHKURq0N{fill: #050505;}#el_tb5s1ZhKAez{fill: #050505;-webkit-animation-fill-mode: backwards;animation-fill-mode: backwards;opacity: 1;-webkit-animation-name: kf_el_tb5s1ZhKAez_an_xluNrrmbh;animation-name: kf_el_tb5s1ZhKAez_an_xluNrrmbh;-webkit-animation-timing-function: cubic-bezier(0, 0, 1, 1);animation-timing-function: cubic-bezier(0, 0, 1, 1);}#el_M6YDLzy4LmI{fill: #050505;}#el_HgDyw5vvdDx{fill: #050505;}#el__I3pZXnyw3O{fill: #050505;}#el_w3te7m98f8Q{fill: #050505;}#el_sHxQqYlmIb1{fill: #050505;}#el_zHH3Pfx3D41{fill: #050505;}#el_Gyq79QaZhh8{fill: #050505;}</style><ellipse id="el_mJ06S_NbSH" cx="49.965" cy="49.985" rx="5.957" ry="5.999"/><path id="el_qrOxlDqnn7" d="M44.063,49.78l2.767,-4.785l-8.161,-4.719l-2.767,4.785l8.161,4.719Z"/><ellipse id="el_SVoRl_dkMe" cx="32.859" cy="40.144" rx="6.016" ry="5.989"/><path id="el_Yrvu99F2j-" d="M35.636,25.51l-5.526,-0.008l-0.014,9.427l5.526,0.008l0.014,-9.427Z"/><ellipse id="el_OK_sPouRCI" cx="32.866" cy="20.347" rx="6.001" ry="5.987"/><path id="el_iAkhbB6c_2" d="M26.895,39.88l2.753,-4.762l-8.161,-4.719l-2.753,4.762l8.161,4.719Z"/><ellipse id="el_2RUxduJAsD" cx="15.772" cy="30.254" rx="5.986" ry="6.001"/><path id="el_Ta9iyz1lsr" d="M13.008,44.819l5.529,-0.005l-0.009,-9.427l-5.528,0.005l0.008,9.427Z"/><ellipse id="el_YvGVByULGP" cx="15.806" cy="49.983" rx="5.991" ry="6.002"/><path id="el_gDs1X-Qxs0" d="M30.084,54.726l5.526,0.007l0.012,-9.427l-5.527,-0.007l-0.011,9.427Z"/><ellipse id="el_Mm2m1XNCEF" cx="32.894" cy="59.844" rx="6.023" ry="6.016"/><path id="el_6OZ7cWB9jO" d="M29.765,64.833l-2.757,-4.768l-8.161,4.719l2.757,4.767l8.161,-4.718Z"/><ellipse id="el_H27NEPO-uT" cx="15.735" cy="69.8" rx="6.006" ry="5.999"/><path id="el_fcJueqAu7T" d="M47.156,64.525l5.491,0.01l0.017,-9.497l-5.492,-0.009l-0.016,9.496Z"/><ellipse id="el_L2Yg1nVoFR" cx="49.97" cy="69.731" rx="5.999" ry="6.001"/><path id="el_ShpMxEHEyFa" d="M46.849,74.733l-2.726,-4.735l-8.261,4.756l2.727,4.735l8.26,-4.756Z"/><ellipse id="el_1knFrI1JCDA" cx="32.926" cy="79.623" rx="6.021" ry="6.017"/><path id="el_5T_Ep789qP0" d="M47.277,84.326l5.467,-0.018l-0.029,-9.446l-5.468,0.017l0.03,9.447Z"/><ellipse id="el_b6eRDGjJmJ-" cx="49.975" cy="89.499" rx="6.004" ry="6.009"/><path id="el_vwTI4Zg9c-1" d="M64.047,84.637l-2.734,-4.754l-8.201,4.716l2.734,4.755l8.201,-4.717Z"/><ellipse id="el_FEIIP_UFcNe" cx="67.141" cy="79.627" rx="5.998" ry="5.977"/><path id="el_KFHXURNFQGk" d="M64.018,64.812l-2.776,-4.801l-8.191,4.735l2.776,4.801l8.191,-4.735Z"/><ellipse id="el_jk97jZC6BGB" cx="67.097" cy="59.926" rx="5.995" ry="6.016"/><path id="el_uQ9OYRTiDVZ" d="M78.371,69.6l2.76,-4.773l-8.161,-4.719l-2.76,4.773l8.161,4.719Z"/><ellipse id="el_DgMnwiDVOf2" cx="84.213" cy="69.792" rx="5.991" ry="5.986"/><path id="el_XfyJwKXBUEA" d="M64.311,44.968l-2.777,-4.804l-8.595,4.97l2.777,4.803l8.595,-4.969Z"/><ellipse id="el_LYjf7eKyihe" cx="67.091" cy="40.14" rx="5.979" ry="6.012"/><path id="el_tSfchmmPkTe" d="M78.446,49.806l2.736,-4.732l-8.161,-4.719l-2.736,4.732l8.161,4.719Z"/><ellipse id="el_3EcvHKURq0N" cx="84.22" cy="49.982" rx="5.999" ry="6.017"/><path id="el_tb5s1ZhKAez" d="M81.072,35.252l-2.749,-4.757l-8.162,4.717l2.749,4.757l8.162,-4.717Z"/><ellipse id="el_M6YDLzy4LmI" cx="84.292" cy="30.198" rx="6.012" ry="5.997"/><path id="el_HgDyw5vvdDx" d="M78.408,30.016l2.699,-4.668l-8.161,-4.719l-2.699,4.668l8.161,4.719Z"/><ellipse id="el__I3pZXnyw3O" cx="67.102" cy="20.417" rx="6.003" ry="5.992"/><path id="el_w3te7m98f8Q" d="M61.274,39.965l2.736,-4.732l-8.407,-4.861l-2.736,4.732l8.407,4.861Z"/><ellipse id="el_sHxQqYlmIb1" cx="49.974" cy="30.244" rx="5.976" ry="5.98"/><path id="el_zHH3Pfx3D41" d="M47.218,25.055l5.491,0.011l0.018,-9.427l-5.491,-0.011l-0.018,9.427Z"/><ellipse id="el_Gyq79QaZhh8" cx="50.005" cy="10.501" rx="6.006" ry="5.994"/></svg>